<svg xmlns="http://www.w3.org/2000/svg" viewBox="0 0 202.76 192.34" fill="#1C1917"><path d="M202.23,118.44l-13.94-11.06c4.68,19.49,3.57,35.59-7.68,50.79-8.47,11.44-22.98,21.87-39.92,21.94l-57.15.2c-24.59,0-29.8.56-49.85-9.8-12.46-6.44-21.56-22.65-21.63-39.34l-.24-53.67,13.06-.08.35,52.15c.14,22.59,19.97,38.9,41.12,38.1,21.69-.82,38.49-18.77,38.63-40.88l.28-103.89,16.18,15.71c2.95-2.85,5.79-5.86,7.69-8.68L99.49,0l-30.17,30.42,8.02,8.24,15.75-15.58-.02,105.07c0,16.54-14.1,28.54-29.3,27.72-14.93-.81-27.25-13.4-27.23-29.11l.11-61.35-36.67-.06.53,67.77c.28,36.98,27.04,59.22,72.31,59.22h0s69.82-.53,69.82-.53c37.53-.29,64.28-37.46,59.57-73.37Z"/><path d="M177.69,125.03c-.83-22.01-16.57-38.97-39.02-39.11v12.01c16.21.62,27.84,14.62,27.02,29.7-.82,15.15-13.6,27.65-29.53,27.63l-24.29-.12-9.81,11.97,36.96-.35c22.92-.14,39.47-20.27,38.66-41.72Z"/></svg>
