<?xml version="1.0" encoding="UTF-8"?>
<svg class="external-link-icon" xmlns="http://www.w3.org/2000/svg" version="1.1" viewBox="0 0 96 86.8">
  <!-- Generator: Adobe Illustrator 29.4.0, SVG Export Plug-In . SVG Version: 2.1.0 Build 152)  -->
  <path d="M74.5,43.6v34.7c0,2.5-2,4.5-4.5,4.5H15c-2.5,0-4.5-2-4.5-4.5V23.3c0-2.5,2-4.5,4.5-4.5h35.6c2.5,0,4.5,2,4.5,4.5s-.5,2.4-1.4,3.3c-.8.8-1.9,1.3-3.1,1.3h-31.1v45.9h45.9v-30.2c0-1.3.5-2.4,1.4-3.3.8-.8,1.9-1.3,3.1-1.3,2.5,0,4.5,2,4.5,4.5h0Z"/>
  <path d="M85,3.8h-28.7c-2.2,0-4.2,1.5-4.6,3.6s1.6,5.5,4.4,5.5h17.9l-31.5,31.6c-1.8,1.8-1.8,4.7,0,6.5h0c1.7,1.8,4.6,1.8,6.3,0l31.6-31.6v17.7c0,2.2,1.5,4.2,3.6,4.6s5.5-1.6,5.5-4.4V8.5c0-2.5-2-4.5-4.5-4.5h0v-.2Z"/>
</svg>
